<svg width="200" height="200" viewBox="0 0 200 200" xmlns="http://www.w3.org/2000/svg">
    <rect x="26" y="26" width="150" height="150" fill="black" stroke="none"/>
    <rect x="20" y="20" width="150" height="150" fill="white" stroke="black" stroke-width="4"/>
    <g fill="#000000" transform="translate(38, 55) scale(0.8)">
        <path d="M26.25 43.90L24.80 39.05L12.75 39.05L11.30 43.90L0 43.90L12.55 9.50L25.40 9.50L37.95 43.90L26.25 43.90M15.05 31.35L22.50 31.35L18.90 19.10L18.70 19.10L15.05 31.35ZM61.40 9.50Q64.60 9.50 67.10 10.97Q69.60 12.45 71 15.02Q72.40 17.60 72.40 20.80L72.40 21.45Q72.40 24.65 71 27.25Q69.60 29.85 67.10 31.32Q64.60 32.80 61.40 32.80L53.15 32.80L53.15 43.90L42.10 43.90L42.10 9.50L61.40 9.50M53.15 24.75L57.70 24.75Q59.45 24.75 60.33 23.85Q61.20 22.95 61.20 21.40L61.20 21.00Q61.20 19.40 60.33 18.52Q59.45 17.65 57.70 17.65L53.15 17.65L53.15 24.75ZM97.50 9.50Q100.70 9.50 103.20 10.97Q105.70 12.45 107.10 15.02Q108.50 17.60 108.50 20.80L108.50 21.45Q108.50 24.65 107.10 27.25Q105.70 29.85 103.20 31.32Q100.70 32.80 97.50 32.80L89.25 32.80L89.25 43.90L78.20 43.90L78.20 9.50L97.50 9.50M89.25 24.75L93.80 24.75Q95.55 24.75 96.42 23.85Q97.30 22.95 97.30 21.40L97.30 21.00Q97.30 19.40 96.42 18.52Q95.55 17.65 93.80 17.65L89.25 17.65L89.25 24.75ZM128.75 8.90Q135.35 8.90 139.60 11.57Q143.85 14.25 143.95 19.50L143.95 20.10L133.60 20.10L133.60 19.90Q133.60 18.40 132.50 17.40Q131.40 16.40 129.15 16.40Q126.95 16.40 125.77 17.05Q124.60 17.70 124.60 18.65Q124.60 20.00 126.20 20.65Q127.80 21.30 131.35 22.00Q135.50 22.85 138.18 23.77Q140.85 24.70 142.85 26.80Q144.85 28.90 144.90 32.50Q144.90 38.60 140.78 41.55Q136.65 44.50 129.75 44.50Q121.70 44.50 117.22 41.80Q112.75 39.10 112.75 32.25L123.20 32.25Q123.20 34.85 124.55 35.72Q125.90 36.60 128.75 36.60Q130.85 36.60 132.22 36.15Q133.60 35.70 133.60 34.30Q133.60 33.05 132.07 32.42Q130.55 31.80 127.10 31.10Q122.90 30.20 120.15 29.22Q117.40 28.25 115.35 26.00Q113.30 23.75 113.30 19.90Q113.30 14.25 117.67 11.57Q122.05 8.90 128.75 8.90Z"/>
    </g>
    <g fill="#2563eb" transform="translate(35, 105) scale(0.5)">
        <path d="M22.90 9.50Q25.50 9.50 27.68 10.57Q29.85 11.65 31.13 13.60Q32.40 15.55 32.40 17.95Q32.40 24.30 26.65 25.95L26.65 26.15Q33.20 27.65 33.20 34.75Q33.20 37.45 31.88 39.52Q30.55 41.60 28.25 42.75Q25.95 43.90 23.20 43.90L0 43.90L0 9.50L22.90 9.50M11.05 22.90L18.65 22.90Q19.75 22.90 20.48 22.12Q21.20 21.35 21.20 20.20L21.20 19.70Q21.20 18.60 20.45 17.82Q19.70 17.05 18.65 17.05L11.05 17.05L11.05 22.90M11.05 35.90L19.45 35.90Q20.55 35.90 21.28 35.13Q22.00 34.35 22.00 33.20L22.00 32.70Q22.00 31.55 21.28 30.77Q20.55 30 19.45 30L11.05 30L11.05 35.90ZM60.25 43.90L49.20 43.90L49.20 30.55L35.55 9.50L48.25 9.50L54.85 20.95L55.05 20.95L61.65 9.50L73.70 9.50L60.25 30.55L60.25 43.90Z"/>
    </g>
    <g fill="#000000" transform="translate(85, 105) scale(0.5)">
        <path d="M0 9.50L11.05 9.50L11.05 35.10L28.70 35.10L28.70 43.90L0 43.90L0 9.50ZM67.60 30.05Q67.60 37.10 63.15 40.80Q58.70 44.50 50.50 44.50Q42.30 44.50 37.83 40.80Q33.35 37.10 33.35 30.05L33.35 9.50L44.40 9.50L44.40 29.90Q44.40 32.80 45.95 34.52Q47.50 36.25 50.45 36.25Q53.40 36.25 54.98 34.50Q56.55 32.75 56.55 29.90L56.55 9.50L67.60 9.50L67.60 30.05ZM98.30 9.50L112.00 9.50L99.65 23.65L112.25 43.90L99.20 43.90L92.05 31.30L86.05 36.20L86.05 43.90L75.00 43.90L75.00 9.50L86.05 9.50L86.05 24.20L98.30 9.50ZM116.65 9.50L146.40 9.50L146.40 17.75L127.70 17.75L127.70 22.50L143.70 22.50L143.70 30.40L127.70 30.40L127.70 35.65L146.75 35.65L146.75 43.90L116.65 43.90L116.65 9.50Z"/>
    </g>
</svg>
