<svg xmlns="http://www.w3.org/2000/svg" xmlns:xlink="http://www.w3.org/1999/xlink" width="500" zoomAndPan="magnify" viewBox="0 0 375 374.999991" height="500" preserveAspectRatio="xMidYMid meet" version="1.0"><defs><g/><clipPath id="9dd2ee9c08"><path d="M 24.914062 24.792969 L 362.277344 24.792969 L 362.277344 362.0625 L 24.914062 362.0625 Z M 24.914062 24.792969 " clip-rule="nonzero"/></clipPath><clipPath id="89f0678e35"><path d="M 18.816406 18.867188 L 356.183594 18.867188 L 356.183594 356.132812 L 18.816406 356.132812 Z M 18.816406 18.867188 " clip-rule="nonzero"/></clipPath><clipPath id="0cd48d42d4"><path d="M 18.816406 18.867188 L 356.175781 18.867188 L 356.175781 356.128906 L 18.816406 356.128906 Z M 18.816406 18.867188 " clip-rule="nonzero"/></clipPath></defs><g clip-path="url(#9dd2ee9c08)"><path fill="#000000" d="M 24.914062 24.792969 L 362.183594 24.792969 L 362.183594 362.0625 L 24.914062 362.0625 Z M 24.914062 24.792969 " fill-opacity="1" fill-rule="nonzero"/></g><g clip-path="url(#89f0678e35)"><path fill="#ffffff" d="M 18.816406 18.867188 L 356.085938 18.867188 L 356.085938 356.132812 L 18.816406 356.132812 Z M 18.816406 18.867188 " fill-opacity="1" fill-rule="nonzero"/></g><g clip-path="url(#0cd48d42d4)"><path stroke-linecap="butt" transform="matrix(0.75, 0, 0, 0.75, 18.818227, 18.866371)" fill="none" stroke-linejoin="miter" d="M -0.00242717 0.00108813 L 449.810102 0.00108813 L 449.810102 449.683409 L -0.00242717 449.683409 Z M -0.00242717 0.00108813 " stroke="#000000" stroke-width="16" stroke-opacity="1" stroke-miterlimit="4"/></g><g fill="#000000" fill-opacity="1"><g transform="translate(37.556418, 119.311198)"><g><path d="M 54.5 0 L 51.546875 -9.875 L 27 -9.875 L 24.046875 0 L 1.015625 0 L 26.59375 -70.09375 L 52.765625 -70.09375 L 78.34375 0 Z M 31.6875 -25.578125 L 46.859375 -25.578125 L 39.53125 -50.53125 L 39.125 -50.53125 Z M 31.6875 -25.578125 "/></g></g></g><g fill="#000000" fill-opacity="1"><g transform="translate(116.802342, 119.311198)"><g><path d="M 46.859375 -70.09375 C 51.203125 -70.09375 55.070312 -69.085938 58.46875 -67.078125 C 61.863281 -65.078125 64.515625 -62.328125 66.421875 -58.828125 C 68.328125 -55.335938 69.28125 -51.414062 69.28125 -47.0625 L 69.28125 -45.734375 C 69.28125 -41.390625 68.328125 -37.453125 66.421875 -33.921875 C 64.515625 -30.390625 61.863281 -27.617188 58.46875 -25.609375 C 55.070312 -23.609375 51.203125 -22.609375 46.859375 -22.609375 L 30.046875 -22.609375 L 30.046875 0 L 7.53125 0 L 7.53125 -70.09375 Z M 30.046875 -39.015625 L 39.328125 -39.015625 C 41.703125 -39.015625 43.484375 -39.625 44.671875 -40.84375 C 45.859375 -42.070312 46.453125 -43.738281 46.453125 -45.84375 L 46.453125 -46.65625 C 46.453125 -48.832031 45.859375 -50.515625 44.671875 -51.703125 C 43.484375 -52.890625 41.703125 -53.484375 39.328125 -53.484375 L 30.046875 -53.484375 Z M 30.046875 -39.015625 "/></g></g></g><g fill="#000000" fill-opacity="1"><g transform="translate(190.344184, 119.311198)"><g><path d="M 46.859375 -70.09375 C 51.203125 -70.09375 55.070312 -69.085938 58.46875 -67.078125 C 61.863281 -65.078125 64.515625 -62.328125 66.421875 -58.828125 C 68.328125 -55.335938 69.28125 -51.414062 69.28125 -47.0625 L 69.28125 -45.734375 C 69.28125 -41.390625 68.328125 -37.453125 66.421875 -33.921875 C 64.515625 -30.390625 61.863281 -27.617188 58.46875 -25.609375 C 55.070312 -23.609375 51.203125 -22.609375 46.859375 -22.609375 L 30.046875 -22.609375 L 30.046875 0 L 7.53125 0 L 7.53125 -70.09375 Z M 30.046875 -39.015625 L 39.328125 -39.015625 C 41.703125 -39.015625 43.484375 -39.625 44.671875 -40.84375 C 45.859375 -42.070312 46.453125 -43.738281 46.453125 -45.84375 L 46.453125 -46.65625 C 46.453125 -48.832031 45.859375 -50.515625 44.671875 -51.703125 C 43.484375 -52.890625 41.703125 -53.484375 39.328125 -53.484375 L 30.046875 -53.484375 Z M 30.046875 -39.015625 "/></g></g></g><g fill="#000000" fill-opacity="1"><g transform="translate(263.886027, 119.311198)"><g><path d="M 36.984375 -71.3125 C 45.941406 -71.3125 53.304688 -69.492188 59.078125 -65.859375 C 64.859375 -62.222656 67.816406 -56.84375 67.953125 -49.71875 L 67.953125 -48.5 L 46.859375 -48.5 L 46.859375 -48.90625 C 46.859375 -50.9375 46.109375 -52.628906 44.609375 -53.984375 C 43.117188 -55.347656 40.847656 -56.03125 37.796875 -56.03125 C 34.804688 -56.03125 32.515625 -55.585938 30.921875 -54.703125 C 29.328125 -53.816406 28.53125 -52.734375 28.53125 -51.453125 C 28.53125 -49.617188 29.613281 -48.257812 31.78125 -47.375 C 33.957031 -46.488281 37.457031 -45.570312 42.28125 -44.625 C 47.914062 -43.46875 52.550781 -42.257812 56.1875 -41 C 59.820312 -39.75 62.992188 -37.695312 65.703125 -34.84375 C 68.421875 -31.988281 69.816406 -28.117188 69.890625 -23.234375 C 69.890625 -14.941406 67.085938 -8.789062 61.484375 -4.78125 C 55.878906 -0.78125 48.390625 1.21875 39.015625 1.21875 C 28.078125 1.21875 19.566406 -0.613281 13.484375 -4.28125 C 7.410156 -7.945312 4.375 -14.429688 4.375 -23.734375 L 25.671875 -23.734375 C 25.671875 -20.203125 26.585938 -17.84375 28.421875 -16.65625 C 30.253906 -15.46875 33.109375 -14.875 36.984375 -14.875 C 39.835938 -14.875 42.195312 -15.175781 44.0625 -15.78125 C 45.925781 -16.394531 46.859375 -17.65625 46.859375 -19.5625 C 46.859375 -21.257812 45.820312 -22.53125 43.75 -23.375 C 41.675781 -24.226562 38.300781 -25.128906 33.625 -26.078125 C 27.914062 -27.296875 23.191406 -28.566406 19.453125 -29.890625 C 15.722656 -31.222656 12.460938 -33.414062 9.671875 -36.46875 C 6.890625 -39.53125 5.5 -43.675781 5.5 -48.90625 C 5.5 -56.570312 8.46875 -62.222656 14.40625 -65.859375 C 20.351562 -69.492188 27.878906 -71.3125 36.984375 -71.3125 Z M 36.984375 -71.3125 "/></g></g></g><g fill="#69d2e7" fill-opacity="1"><g transform="translate(144.130846, 199.214752)"><g><path d="M 29.640625 -38.328125 C 31.578125 -38.328125 33.351562 -37.925781 34.96875 -37.125 C 36.582031 -36.332031 37.863281 -35.210938 38.8125 -33.765625 C 39.757812 -32.316406 40.234375 -30.703125 40.234375 -28.921875 C 40.234375 -24.203125 38.097656 -21.226562 33.828125 -20 L 33.828125 -19.78125 C 38.691406 -18.664062 41.125 -15.472656 41.125 -10.203125 C 41.125 -8.191406 40.628906 -6.414062 39.640625 -4.875 C 38.660156 -3.332031 37.316406 -2.132812 35.609375 -1.28125 C 33.898438 -0.425781 32.023438 0 29.984375 0 L 4.125 0 L 4.125 -38.328125 Z M 16.4375 -23.40625 L 24.90625 -23.40625 C 25.71875 -23.40625 26.394531 -23.691406 26.9375 -24.265625 C 27.476562 -24.835938 27.75 -25.550781 27.75 -26.40625 L 27.75 -26.96875 C 27.75 -27.78125 27.46875 -28.472656 26.90625 -29.046875 C 26.351562 -29.628906 25.6875 -29.921875 24.90625 -29.921875 L 16.4375 -29.921875 Z M 16.4375 -8.921875 L 25.796875 -8.921875 C 26.617188 -8.921875 27.296875 -9.207031 27.828125 -9.78125 C 28.367188 -10.351562 28.640625 -11.066406 28.640625 -11.921875 L 28.640625 -12.484375 C 28.640625 -13.335938 28.367188 -14.050781 27.828125 -14.625 C 27.296875 -15.195312 26.617188 -15.484375 25.796875 -15.484375 L 16.4375 -15.484375 Z M 16.4375 -8.921875 "/></g></g></g><g fill="#69d2e7" fill-opacity="1"><g transform="translate(187.468154, 199.214752)"><g><path d="M 27.921875 0 L 15.59375 0 L 15.59375 -14.875 L 0.390625 -38.328125 L 14.546875 -38.328125 L 21.890625 -25.578125 L 22.125 -25.578125 L 29.46875 -38.328125 L 42.90625 -38.328125 L 27.921875 -14.875 Z M 27.921875 0 "/></g></g></g><g fill="#000000" fill-opacity="1"><g transform="translate(31.361881, 311.47119)"><g><path d="M 7.5625 -70.34375 L 30.15625 -70.34375 L 30.15625 -18 L 66.25 -18 L 66.25 0 L 7.5625 0 Z M 7.5625 -70.34375 "/></g></g></g><g fill="#000000" fill-opacity="1"><g transform="translate(99.537903, 311.47119)"><g><path d="M 77.59375 -28.3125 C 77.59375 -18.707031 74.554688 -11.378906 68.484375 -6.328125 C 62.421875 -1.285156 53.800781 1.234375 42.625 1.234375 C 31.445312 1.234375 22.804688 -1.285156 16.703125 -6.328125 C 10.609375 -11.378906 7.5625 -18.707031 7.5625 -28.3125 L 7.5625 -70.34375 L 30.15625 -70.34375 L 30.15625 -28.625 C 30.15625 -24.675781 31.210938 -21.523438 33.328125 -19.171875 C 35.441406 -16.816406 38.507812 -15.640625 42.53125 -15.640625 C 46.550781 -15.640625 49.632812 -16.832031 51.78125 -19.21875 C 53.925781 -21.601562 55 -24.738281 55 -28.625 L 55 -70.34375 L 77.59375 -70.34375 Z M 77.59375 -28.3125 "/></g></g></g><g fill="#000000" fill-opacity="1"><g transform="translate(184.681296, 311.47119)"><g><path d="M 55.203125 -70.34375 L 83.21875 -70.34375 L 57.96875 -41.40625 L 83.734375 0 L 57.046875 0 L 42.421875 -25.765625 L 30.15625 -15.75 L 30.15625 0 L 7.5625 0 L 7.5625 -70.34375 L 30.15625 -70.34375 L 30.15625 -40.28125 Z M 55.203125 -70.34375 "/></g></g></g><g fill="#000000" fill-opacity="1"><g transform="translate(269.824688, 311.47119)"><g><path d="M 7.5625 -70.34375 L 68.390625 -70.34375 L 68.390625 -53.46875 L 30.15625 -53.46875 L 30.15625 -43.75 L 62.875 -43.75 L 62.875 -27.609375 L 30.15625 -27.609375 L 30.15625 -16.875 L 69.109375 -16.875 L 69.109375 0 L 7.5625 0 Z M 7.5625 -70.34375 "/></g></g></g></svg>