<svg xmlns="http://www.w3.org/2000/svg" xmlns:xlink="http://www.w3.org/1999/xlink" width="500" zoomAndPan="magnify" viewBox="0 0 375 374.999991" height="500" preserveAspectRatio="xMidYMid meet" version="1.0"><defs><g/><clipPath id="76dedd2ad6"><path d="M 15 114 L 365 114 L 365 266 L 15 266 Z M 15 114 " clip-rule="nonzero"/></clipPath><clipPath id="aa899048df"><path d="M 15.605469 140.628906 L 355.144531 114.695312 L 364.695312 239.75 L 25.15625 265.679688 Z M 15.605469 140.628906 " clip-rule="nonzero"/></clipPath><clipPath id="1d7f7f8a0f"><path d="M 10 109 L 360 109 L 360 261 L 10 261 Z M 10 109 " clip-rule="nonzero"/></clipPath><clipPath id="318b7da707"><path d="M 10.304688 135.25 L 349.84375 109.320312 L 359.394531 234.371094 L 19.855469 260.304688 Z M 10.304688 135.25 " clip-rule="nonzero"/></clipPath><clipPath id="061b6a2942"><path d="M 10 109 L 360 109 L 360 261 L 10 261 Z M 10 109 " clip-rule="nonzero"/></clipPath><clipPath id="c1ea074761"><path d="M 10.304688 135.25 L 349.816406 109.320312 L 359.355469 234.207031 L 19.84375 260.136719 Z M 10.304688 135.25 " clip-rule="nonzero"/></clipPath><clipPath id="2c2f41d286"><path d="M 10.304688 135.25 L 349.839844 109.320312 L 359.390625 234.371094 L 19.855469 260.300781 Z M 10.304688 135.25 " clip-rule="nonzero"/></clipPath></defs><g clip-path="url(#76dedd2ad6)"><g clip-path="url(#aa899048df)"><path fill="#000000" d="M 15.605469 140.628906 L 355.101562 114.699219 L 364.648438 239.75 L 25.15625 265.679688 Z M 15.605469 140.628906 " fill-opacity="1" fill-rule="nonzero"/></g></g><g clip-path="url(#1d7f7f8a0f)"><g clip-path="url(#318b7da707)"><path fill="#ffffff" d="M 10.304688 135.25 L 349.800781 109.324219 L 359.351562 234.375 L 19.855469 260.304688 Z M 10.304688 135.25 " fill-opacity="1" fill-rule="nonzero"/></g></g><g clip-path="url(#061b6a2942)"><g clip-path="url(#c1ea074761)"><g clip-path="url(#2c2f41d286)"><path stroke-linecap="butt" transform="matrix(0.747822, -0.0571133, 0.0571133, 0.747822, 10.305439, 135.251535)" fill="none" stroke-linejoin="miter" d="M -0.000842828 -0.00211715 L 454.030888 -0.0000226009 L 454.031285 167.219931 L -0.000446152 167.217836 Z M -0.000842828 -0.00211715 " stroke="#000000" stroke-width="16" stroke-opacity="1" stroke-miterlimit="4"/></g></g></g><g fill="#000000" fill-opacity="1"><g transform="translate(34.595299, 210.202184)"><g><path d="M 22.578125 -1.71875 L 21.046875 -5.71875 L 10.875 -4.953125 L 9.953125 -0.765625 L 0.421875 -0.03125 L 8.796875 -29.890625 L 19.640625 -30.71875 L 32.453125 -2.484375 Z M 12.3125 -11.59375 L 18.59375 -12.078125 L 14.78125 -22.1875 L 14.609375 -22.171875 Z M 12.3125 -11.59375 "/></g></g></g><g fill="#000000" fill-opacity="1"><g transform="translate(67.421801, 207.695131)"><g><path d="M 17.1875 -30.53125 C 19 -30.664062 20.632812 -30.367188 22.09375 -29.640625 C 23.5625 -28.921875 24.742188 -27.863281 25.640625 -26.46875 C 26.546875 -25.082031 27.070312 -23.488281 27.21875 -21.6875 L 27.25 -21.125 C 27.394531 -19.332031 27.125 -17.675781 26.4375 -16.15625 C 25.757812 -14.632812 24.75 -13.398438 23.40625 -12.453125 C 22.070312 -11.515625 20.5 -10.976562 18.6875 -10.84375 L 11.734375 -10.3125 L 12.453125 -0.953125 L 3.109375 -0.234375 L 0.890625 -29.28125 Z M 11.21875 -17.125 L 15.0625 -17.421875 C 16.039062 -17.492188 16.753906 -17.800781 17.203125 -18.34375 C 17.660156 -18.882812 17.851562 -19.585938 17.78125 -20.453125 L 17.765625 -20.796875 C 17.691406 -21.691406 17.390625 -22.367188 16.859375 -22.828125 C 16.335938 -23.285156 15.585938 -23.476562 14.609375 -23.40625 L 10.765625 -23.109375 Z M 11.21875 -17.125 "/></g></g></g><g fill="#000000" fill-opacity="1"><g transform="translate(97.885468, 205.368534)"><g><path d="M 17.1875 -30.53125 C 19 -30.664062 20.632812 -30.367188 22.09375 -29.640625 C 23.5625 -28.921875 24.742188 -27.863281 25.640625 -26.46875 C 26.546875 -25.082031 27.070312 -23.488281 27.21875 -21.6875 L 27.25 -21.125 C 27.394531 -19.332031 27.125 -17.675781 26.4375 -16.15625 C 25.757812 -14.632812 24.75 -13.398438 23.40625 -12.453125 C 22.070312 -11.515625 20.5 -10.976562 18.6875 -10.84375 L 11.734375 -10.3125 L 12.453125 -0.953125 L 3.109375 -0.234375 L 0.890625 -29.28125 Z M 11.21875 -17.125 L 15.0625 -17.421875 C 16.039062 -17.492188 16.753906 -17.800781 17.203125 -18.34375 C 17.660156 -18.882812 17.851562 -19.585938 17.78125 -20.453125 L 17.765625 -20.796875 C 17.691406 -21.691406 17.390625 -22.367188 16.859375 -22.828125 C 16.335938 -23.285156 15.585938 -23.476562 14.609375 -23.40625 L 10.765625 -23.109375 Z M 11.21875 -17.125 "/></g></g></g><g fill="#000000" fill-opacity="1"><g transform="translate(128.349135, 203.041938)"><g><path d="M 13.0625 -30.703125 C 16.78125 -30.984375 19.890625 -30.460938 22.390625 -29.140625 C 24.898438 -27.816406 26.296875 -25.6875 26.578125 -22.75 L 26.625 -22.234375 L 17.875 -21.5625 L 17.859375 -21.734375 C 17.796875 -22.585938 17.4375 -23.269531 16.78125 -23.78125 C 16.125 -24.300781 15.160156 -24.515625 13.890625 -24.421875 C 12.648438 -24.316406 11.710938 -24.054688 11.078125 -23.640625 C 10.453125 -23.234375 10.160156 -22.757812 10.203125 -22.21875 C 10.253906 -21.457031 10.742188 -20.925781 11.671875 -20.625 C 12.597656 -20.320312 14.078125 -20.0625 16.109375 -19.84375 C 18.472656 -19.53125 20.425781 -19.171875 21.96875 -18.765625 C 23.519531 -18.359375 24.90625 -17.609375 26.125 -16.515625 C 27.34375 -15.421875 28.039062 -13.859375 28.21875 -11.828125 C 28.476562 -8.390625 27.507812 -5.75 25.3125 -3.90625 C 23.125 -2.070312 20.09375 -1.007812 16.21875 -0.71875 C 11.675781 -0.375 8.085938 -0.863281 5.453125 -2.1875 C 2.816406 -3.519531 1.351562 -6.113281 1.0625 -9.96875 L 9.890625 -10.640625 C 10.003906 -9.179688 10.457031 -8.234375 11.25 -7.796875 C 12.050781 -7.367188 13.25 -7.21875 14.84375 -7.34375 C 16.03125 -7.4375 17 -7.632812 17.75 -7.9375 C 18.5 -8.25 18.84375 -8.796875 18.78125 -9.578125 C 18.726562 -10.285156 18.257812 -10.78125 17.375 -11.0625 C 16.5 -11.351562 15.070312 -11.625 13.09375 -11.875 C 10.695312 -12.195312 8.703125 -12.570312 7.109375 -13 C 5.515625 -13.4375 4.09375 -14.242188 2.84375 -15.421875 C 1.601562 -16.597656 0.898438 -18.265625 0.734375 -20.421875 C 0.492188 -23.597656 1.546875 -26.03125 3.890625 -27.71875 C 6.234375 -29.414062 9.289062 -30.410156 13.0625 -30.703125 Z M 13.0625 -30.703125 "/></g></g></g><g fill="#69d2e7" fill-opacity="1"><g transform="translate(161.603631, 193.865215)"><g><path d="M 11.484375 -17.4375 C 12.304688 -17.5 13.078125 -17.382812 13.796875 -17.09375 C 14.523438 -16.8125 15.113281 -16.367188 15.5625 -15.765625 C 16.019531 -15.171875 16.273438 -14.492188 16.328125 -13.734375 C 16.484375 -11.703125 15.660156 -10.351562 13.859375 -9.6875 L 13.875 -9.59375 C 16.007812 -9.28125 17.164062 -7.988281 17.34375 -5.71875 C 17.40625 -4.851562 17.25 -4.078125 16.875 -3.390625 C 16.5 -2.703125 15.957031 -2.144531 15.25 -1.71875 C 14.539062 -1.289062 13.75 -1.046875 12.875 -0.984375 L 1.78125 -0.140625 L 0.53125 -16.609375 Z M 6.296875 -10.578125 L 9.9375 -10.859375 C 10.28125 -10.890625 10.554688 -11.035156 10.765625 -11.296875 C 10.984375 -11.566406 11.082031 -11.882812 11.0625 -12.25 L 11.03125 -12.484375 C 11.007812 -12.835938 10.867188 -13.128906 10.609375 -13.359375 C 10.347656 -13.597656 10.050781 -13.703125 9.71875 -13.671875 L 6.078125 -13.390625 Z M 6.765625 -4.359375 L 10.78125 -4.671875 C 11.132812 -4.703125 11.421875 -4.847656 11.640625 -5.109375 C 11.859375 -5.367188 11.953125 -5.6875 11.921875 -6.0625 L 11.90625 -6.296875 C 11.875 -6.660156 11.726562 -6.957031 11.46875 -7.1875 C 11.21875 -7.425781 10.914062 -7.53125 10.5625 -7.5 L 6.546875 -7.1875 Z M 6.765625 -4.359375 "/></g></g></g><g fill="#69d2e7" fill-opacity="1"><g transform="translate(180.212291, 192.444019)"><g><path d="M 12 -0.921875 L 6.703125 -0.515625 L 6.21875 -6.90625 L -1.078125 -16.484375 L 5 -16.953125 L 8.5625 -11.703125 L 8.65625 -11.703125 L 11.421875 -17.4375 L 17.1875 -17.875 L 11.515625 -7.3125 Z M 12 -0.921875 "/></g></g></g><g fill="#000000" fill-opacity="1"><g transform="translate(202.608861, 197.63301)"><g><path d="M 0.890625 -29.25 L 10.234375 -29.96875 L 11.890625 -8.375 L 26.765625 -9.515625 L 27.328125 -2.09375 L 3.109375 -0.234375 Z M 0.890625 -29.25 "/></g></g></g><g fill="#000000" fill-opacity="1"><g transform="translate(230.736303, 195.484838)"><g><path d="M 31.125 -14.125 C 31.425781 -10.15625 30.398438 -7.035156 28.046875 -4.765625 C 25.703125 -2.503906 22.226562 -1.195312 17.625 -0.84375 C 13.007812 -0.488281 9.363281 -1.253906 6.6875 -3.140625 C 4.007812 -5.023438 2.519531 -7.953125 2.21875 -11.921875 L 0.890625 -29.25 L 10.234375 -29.96875 L 11.546875 -12.765625 C 11.671875 -11.128906 12.203125 -9.859375 13.140625 -8.953125 C 14.078125 -8.054688 15.378906 -7.671875 17.046875 -7.796875 C 18.703125 -7.921875 19.9375 -8.507812 20.75 -9.5625 C 21.5625 -10.613281 21.90625 -11.941406 21.78125 -13.546875 L 20.46875 -30.75 L 29.796875 -31.453125 Z M 31.125 -14.125 "/></g></g></g><g fill="#000000" fill-opacity="1"><g transform="translate(265.863988, 192.802037)"><g><path d="M 20.5625 -30.75 L 32.109375 -31.640625 L 22.625 -18.90625 L 34.546875 -2.640625 L 23.546875 -1.796875 L 16.6875 -11.96875 L 11.953125 -7.453125 L 12.453125 -0.953125 L 3.109375 -0.234375 L 0.890625 -29.25 L 10.234375 -29.96875 L 11.1875 -17.578125 Z M 20.5625 -30.75 "/></g></g></g><g fill="#000000" fill-opacity="1"><g transform="translate(300.991673, 190.119236)"><g><path d="M 0.890625 -29.25 L 26 -31.171875 L 26.53125 -24.21875 L 10.765625 -23.015625 L 11.078125 -19.015625 L 24.5625 -20.046875 L 25.0625 -13.375 L 11.578125 -12.34375 L 11.921875 -7.921875 L 27.984375 -9.140625 L 28.515625 -2.171875 L 3.109375 -0.234375 Z M 0.890625 -29.25 "/></g></g></g></svg>