<svg xmlns="http://www.w3.org/2000/svg" xmlns:xlink="http://www.w3.org/1999/xlink" width="500" zoomAndPan="magnify" viewBox="0 0 375 374.999991" height="500" preserveAspectRatio="xMidYMid meet" version="1.0"><defs><g/><clipPath id="7a5eb286ab"><path d="M 187.5 0 C 83.945312 0 0 83.945312 0 187.5 C 0 291.054688 83.945312 375 187.5 375 C 291.054688 375 375 291.054688 375 187.5 C 375 83.945312 291.054688 0 187.5 0 Z M 187.5 0 " clip-rule="nonzero"/></clipPath></defs><g clip-path="url(#7a5eb286ab)"><rect x="-37.5" width="450" fill="#ffffff" y="-37.499999" height="449.999989" fill-opacity="1"/></g><g fill="#000000" fill-opacity="1"><g transform="translate(38.553327, 201.374987)"><g><path d="M 22.640625 0 L 21.421875 -4.109375 L 11.21875 -4.109375 L 9.984375 0 L 0.421875 0 L 11.046875 -29.125 L 21.921875 -29.125 L 32.546875 0 Z M 13.15625 -10.625 L 19.46875 -10.625 L 16.421875 -21 L 16.25 -21 Z M 13.15625 -10.625 "/></g></g></g><g fill="#000000" fill-opacity="1"><g transform="translate(71.475425, 201.374987)"><g><path d="M 19.46875 -29.125 C 21.28125 -29.125 22.890625 -28.707031 24.296875 -27.875 C 25.703125 -27.039062 26.800781 -25.894531 27.59375 -24.4375 C 28.382812 -22.988281 28.78125 -21.363281 28.78125 -19.5625 L 28.78125 -19 C 28.78125 -17.195312 28.382812 -15.5625 27.59375 -14.09375 C 26.800781 -12.625 25.703125 -11.472656 24.296875 -10.640625 C 22.890625 -9.804688 21.28125 -9.390625 19.46875 -9.390625 L 12.484375 -9.390625 L 12.484375 0 L 3.125 0 L 3.125 -29.125 Z M 12.484375 -16.21875 L 16.34375 -16.21875 C 17.320312 -16.21875 18.054688 -16.46875 18.546875 -16.96875 C 19.046875 -17.476562 19.296875 -18.171875 19.296875 -19.046875 L 19.296875 -19.390625 C 19.296875 -20.285156 19.046875 -20.976562 18.546875 -21.46875 C 18.054688 -21.96875 17.320312 -22.21875 16.34375 -22.21875 L 12.484375 -22.21875 Z M 12.484375 -16.21875 "/></g></g></g><g fill="#000000" fill-opacity="1"><g transform="translate(102.027806, 201.374987)"><g><path d="M 19.46875 -29.125 C 21.28125 -29.125 22.890625 -28.707031 24.296875 -27.875 C 25.703125 -27.039062 26.800781 -25.894531 27.59375 -24.4375 C 28.382812 -22.988281 28.78125 -21.363281 28.78125 -19.5625 L 28.78125 -19 C 28.78125 -17.195312 28.382812 -15.5625 27.59375 -14.09375 C 26.800781 -12.625 25.703125 -11.472656 24.296875 -10.640625 C 22.890625 -9.804688 21.28125 -9.390625 19.46875 -9.390625 L 12.484375 -9.390625 L 12.484375 0 L 3.125 0 L 3.125 -29.125 Z M 12.484375 -16.21875 L 16.34375 -16.21875 C 17.320312 -16.21875 18.054688 -16.46875 18.546875 -16.96875 C 19.046875 -17.476562 19.296875 -18.171875 19.296875 -19.046875 L 19.296875 -19.390625 C 19.296875 -20.285156 19.046875 -20.976562 18.546875 -21.46875 C 18.054688 -21.96875 17.320312 -22.21875 16.34375 -22.21875 L 12.484375 -22.21875 Z M 12.484375 -16.21875 "/></g></g></g><g fill="#000000" fill-opacity="1"><g transform="translate(132.580187, 201.374987)"><g><path d="M 15.359375 -29.625 C 19.085938 -29.625 22.148438 -28.867188 24.546875 -27.359375 C 26.941406 -25.847656 28.171875 -23.613281 28.234375 -20.65625 L 28.234375 -20.140625 L 19.46875 -20.140625 L 19.46875 -20.3125 C 19.46875 -21.164062 19.15625 -21.875 18.53125 -22.4375 C 17.914062 -23 16.972656 -23.28125 15.703125 -23.28125 C 14.460938 -23.28125 13.507812 -23.097656 12.84375 -22.734375 C 12.1875 -22.367188 11.859375 -21.914062 11.859375 -21.375 C 11.859375 -20.613281 12.304688 -20.046875 13.203125 -19.671875 C 14.109375 -19.304688 15.5625 -18.929688 17.5625 -18.546875 C 19.90625 -18.054688 21.832031 -17.550781 23.34375 -17.03125 C 24.851562 -16.507812 26.171875 -15.65625 27.296875 -14.46875 C 28.429688 -13.289062 29.007812 -11.6875 29.03125 -9.65625 C 29.03125 -6.207031 27.863281 -3.648438 25.53125 -1.984375 C 23.207031 -0.316406 20.101562 0.515625 16.21875 0.515625 C 11.664062 0.515625 8.125 -0.242188 5.59375 -1.765625 C 3.070312 -3.296875 1.8125 -5.992188 1.8125 -9.859375 L 10.671875 -9.859375 C 10.671875 -8.390625 11.050781 -7.410156 11.8125 -6.921875 C 12.570312 -6.429688 13.753906 -6.1875 15.359375 -6.1875 C 16.546875 -6.1875 17.523438 -6.3125 18.296875 -6.5625 C 19.078125 -6.8125 19.46875 -7.332031 19.46875 -8.125 C 19.46875 -8.832031 19.035156 -9.363281 18.171875 -9.71875 C 17.316406 -10.070312 15.914062 -10.445312 13.96875 -10.84375 C 11.59375 -11.34375 9.628906 -11.867188 8.078125 -12.421875 C 6.523438 -12.972656 5.171875 -13.882812 4.015625 -15.15625 C 2.859375 -16.425781 2.28125 -18.144531 2.28125 -20.3125 C 2.28125 -23.5 3.515625 -25.847656 5.984375 -27.359375 C 8.453125 -28.867188 11.578125 -29.625 15.359375 -29.625 Z M 15.359375 -29.625 "/></g></g></g><g fill="#69d2e7" fill-opacity="1"><g transform="translate(166.436947, 194.757263)"><g><path d="M 12.765625 -16.515625 C 13.597656 -16.515625 14.363281 -16.34375 15.0625 -16 C 15.757812 -15.65625 16.3125 -15.171875 16.71875 -14.546875 C 17.125 -13.921875 17.328125 -13.222656 17.328125 -12.453125 C 17.328125 -10.421875 16.40625 -9.140625 14.5625 -8.609375 L 14.5625 -8.515625 C 16.664062 -8.035156 17.71875 -6.660156 17.71875 -4.390625 C 17.71875 -3.523438 17.503906 -2.757812 17.078125 -2.09375 C 16.648438 -1.4375 16.066406 -0.921875 15.328125 -0.546875 C 14.597656 -0.179688 13.789062 0 12.90625 0 L 1.78125 0 L 1.78125 -16.515625 Z M 7.078125 -10.078125 L 10.734375 -10.078125 C 11.078125 -10.078125 11.363281 -10.203125 11.59375 -10.453125 C 11.832031 -10.703125 11.953125 -11.007812 11.953125 -11.375 L 11.953125 -11.609375 C 11.953125 -11.960938 11.832031 -12.265625 11.59375 -12.515625 C 11.351562 -12.765625 11.066406 -12.890625 10.734375 -12.890625 L 7.078125 -12.890625 Z M 7.078125 -3.84375 L 11.109375 -3.84375 C 11.460938 -3.84375 11.753906 -3.960938 11.984375 -4.203125 C 12.222656 -4.453125 12.34375 -4.765625 12.34375 -5.140625 L 12.34375 -5.375 C 12.34375 -5.738281 12.222656 -6.046875 11.984375 -6.296875 C 11.753906 -6.546875 11.460938 -6.671875 11.109375 -6.671875 L 7.078125 -6.671875 Z M 7.078125 -3.84375 "/></g></g></g><g fill="#69d2e7" fill-opacity="1"><g transform="translate(185.099799, 194.757263)"><g><path d="M 12.03125 0 L 6.71875 0 L 6.71875 -6.40625 L 0.171875 -16.515625 L 6.265625 -16.515625 L 9.4375 -11.015625 L 9.53125 -11.015625 L 12.703125 -16.515625 L 18.484375 -16.515625 L 12.03125 -6.40625 Z M 12.03125 0 "/></g></g></g><g fill="#000000" fill-opacity="1"><g transform="translate(207.036158, 201.636726)"><g><path d="M 3.125 -29.09375 L 12.484375 -29.09375 L 12.484375 -7.4375 L 27.40625 -7.4375 L 27.40625 0 L 3.125 0 Z M 3.125 -29.09375 "/></g></g></g><g fill="#000000" fill-opacity="1"><g transform="translate(235.24551, 201.636726)"><g><path d="M 32.109375 -11.71875 C 32.109375 -7.738281 30.851562 -4.707031 28.34375 -2.625 C 25.832031 -0.539062 22.265625 0.5 17.640625 0.5 C 13.015625 0.5 9.4375 -0.539062 6.90625 -2.625 C 4.382812 -4.707031 3.125 -7.738281 3.125 -11.71875 L 3.125 -29.09375 L 12.484375 -29.09375 L 12.484375 -11.84375 C 12.484375 -10.207031 12.914062 -8.898438 13.78125 -7.921875 C 14.65625 -6.953125 15.925781 -6.46875 17.59375 -6.46875 C 19.257812 -6.46875 20.535156 -6.960938 21.421875 -7.953125 C 22.304688 -8.941406 22.75 -10.238281 22.75 -11.84375 L 22.75 -29.09375 L 32.109375 -29.09375 Z M 32.109375 -11.71875 "/></g></g></g><g fill="#000000" fill-opacity="1"><g transform="translate(270.475492, 201.636726)"><g><path d="M 22.84375 -29.09375 L 34.421875 -29.09375 L 23.984375 -17.125 L 34.640625 0 L 23.609375 0 L 17.546875 -10.65625 L 12.484375 -6.515625 L 12.484375 0 L 3.125 0 L 3.125 -29.09375 L 12.484375 -29.09375 L 12.484375 -16.671875 Z M 22.84375 -29.09375 "/></g></g></g><g fill="#000000" fill-opacity="1"><g transform="translate(305.705474, 201.636726)"><g><path d="M 3.125 -29.09375 L 28.296875 -29.09375 L 28.296875 -22.125 L 12.484375 -22.125 L 12.484375 -18.109375 L 26.015625 -18.109375 L 26.015625 -11.421875 L 12.484375 -11.421875 L 12.484375 -6.984375 L 28.59375 -6.984375 L 28.59375 0 L 3.125 0 Z M 3.125 -29.09375 "/></g></g></g></svg>