<svg xmlns="http://www.w3.org/2000/svg" xmlns:xlink="http://www.w3.org/1999/xlink" width="473" zoomAndPan="magnify" viewBox="0 0 354.75 157.5" height="210" preserveAspectRatio="xMidYMid meet" version="1.0"><defs><g/><clipPath id="0213d211aa"><path d="M 5 5 L 354 5 L 354 157 L 5 157 Z M 5 5 " clip-rule="nonzero"/></clipPath><clipPath id="599840b087"><path d="M 5.71875 31.578125 L 344.183594 5.730469 L 353.703125 130.386719 L 15.238281 156.234375 Z M 5.71875 31.578125 " clip-rule="nonzero"/></clipPath><clipPath id="8e7d22c7f6"><path d="M 0.4375 0 L 349 0 L 349 151 L 0.4375 151 Z M 0.4375 0 " clip-rule="nonzero"/></clipPath><clipPath id="e24e7d6111"><path d="M 0.4375 26.21875 L 338.902344 0.371094 L 348.421875 125.027344 L 9.957031 150.875 Z M 0.4375 26.21875 " clip-rule="nonzero"/></clipPath><clipPath id="fa8314490c"><path d="M 0.4375 0 L 349 0 L 349 151 L 0.4375 151 Z M 0.4375 0 " clip-rule="nonzero"/></clipPath><clipPath id="a537d8eddf"><path d="M 0.4375 26.21875 L 338.875 0.371094 L 348.382812 124.863281 L 9.945312 150.710938 Z M 0.4375 26.21875 " clip-rule="nonzero"/></clipPath><clipPath id="7b8e2e2ddb"><path d="M 0.4375 26.21875 L 338.898438 0.371094 L 348.417969 125.023438 L 9.957031 150.875 Z M 0.4375 26.21875 " clip-rule="nonzero"/></clipPath></defs><g clip-path="url(#0213d211aa)"><g clip-path="url(#599840b087)"><path fill="#000000" d="M 5.71875 31.578125 L 344.140625 5.734375 L 353.660156 130.390625 L 15.238281 156.234375 Z M 5.71875 31.578125 " fill-opacity="1" fill-rule="nonzero"/></g></g><g clip-path="url(#8e7d22c7f6)"><g clip-path="url(#e24e7d6111)"><path fill="#ffffff" d="M 0.4375 26.21875 L 338.859375 0.375 L 348.378906 125.027344 L 9.957031 150.875 Z M 0.4375 26.21875 " fill-opacity="1" fill-rule="nonzero"/></g></g><g clip-path="url(#fa8314490c)"><g clip-path="url(#a537d8eddf)"><g clip-path="url(#7b8e2e2ddb)"><path stroke-linecap="butt" transform="matrix(0.745456, -0.0569326, 0.0569326, 0.745456, 0.436744, 26.219513)" fill="none" stroke-linejoin="miter" d="M 0.00108601 -0.000940105 L 454.033155 0.00114792 L 454.032459 167.217382 L -0.0000078144 167.220504 Z M 0.00108601 -0.000940105 " stroke="#000000" stroke-width="16" stroke-opacity="1" stroke-miterlimit="4"/></g></g></g><g fill="#000000" fill-opacity="1"><g transform="translate(24.649739, 100.932973)"><g><path d="M 22.5 -1.71875 L 20.96875 -5.703125 L 10.828125 -4.921875 L 9.921875 -0.765625 L 0.421875 -0.03125 L 8.78125 -29.796875 L 19.59375 -30.625 L 32.34375 -2.46875 Z M 12.28125 -11.5625 L 18.53125 -12.046875 L 14.734375 -22.109375 L 14.5625 -22.09375 Z M 12.28125 -11.5625 "/></g></g></g><g fill="#000000" fill-opacity="1"><g transform="translate(57.37236, 98.433853)"><g><path d="M 17.140625 -30.4375 C 18.941406 -30.570312 20.570312 -30.273438 22.03125 -29.546875 C 23.5 -28.816406 24.679688 -27.757812 25.578125 -26.375 C 26.472656 -25 26.988281 -23.410156 27.125 -21.609375 L 27.171875 -21.0625 C 27.304688 -19.269531 27.035156 -17.613281 26.359375 -16.09375 C 25.679688 -14.582031 24.671875 -13.359375 23.328125 -12.421875 C 21.992188 -11.484375 20.425781 -10.945312 18.625 -10.8125 L 11.6875 -10.28125 L 12.40625 -0.953125 L 3.109375 -0.234375 L 0.90625 -29.1875 Z M 11.171875 -17.0625 L 15 -17.34375 C 15.988281 -17.425781 16.707031 -17.738281 17.15625 -18.28125 C 17.601562 -18.820312 17.789062 -19.523438 17.71875 -20.390625 L 17.703125 -20.734375 C 17.628906 -21.628906 17.332031 -22.300781 16.8125 -22.75 C 16.289062 -23.207031 15.535156 -23.394531 14.546875 -23.3125 L 10.71875 -23.03125 Z M 11.171875 -17.0625 "/></g></g></g><g fill="#000000" fill-opacity="1"><g transform="translate(87.739624, 96.114619)"><g><path d="M 17.140625 -30.4375 C 18.941406 -30.570312 20.570312 -30.273438 22.03125 -29.546875 C 23.5 -28.816406 24.679688 -27.757812 25.578125 -26.375 C 26.472656 -25 26.988281 -23.410156 27.125 -21.609375 L 27.171875 -21.0625 C 27.304688 -19.269531 27.035156 -17.613281 26.359375 -16.09375 C 25.679688 -14.582031 24.671875 -13.359375 23.328125 -12.421875 C 21.992188 -11.484375 20.425781 -10.945312 18.625 -10.8125 L 11.6875 -10.28125 L 12.40625 -0.953125 L 3.109375 -0.234375 L 0.90625 -29.1875 Z M 11.171875 -17.0625 L 15 -17.34375 C 15.988281 -17.425781 16.707031 -17.738281 17.15625 -18.28125 C 17.601562 -18.820312 17.789062 -19.523438 17.71875 -20.390625 L 17.703125 -20.734375 C 17.628906 -21.628906 17.332031 -22.300781 16.8125 -22.75 C 16.289062 -23.207031 15.535156 -23.394531 14.546875 -23.3125 L 10.71875 -23.03125 Z M 11.171875 -17.0625 "/></g></g></g><g fill="#000000" fill-opacity="1"><g transform="translate(118.106888, 93.795385)"><g><path d="M 13.015625 -30.609375 C 16.710938 -30.890625 19.8125 -30.367188 22.3125 -29.046875 C 24.8125 -27.734375 26.207031 -25.609375 26.5 -22.671875 L 26.53125 -22.15625 L 17.8125 -21.5 L 17.796875 -21.671875 C 17.734375 -22.515625 17.375 -23.191406 16.71875 -23.703125 C 16.0625 -24.222656 15.101562 -24.429688 13.84375 -24.328125 C 12.601562 -24.234375 11.664062 -23.976562 11.03125 -23.5625 C 10.40625 -23.15625 10.113281 -22.679688 10.15625 -22.140625 C 10.21875 -21.390625 10.707031 -20.863281 11.625 -20.5625 C 12.550781 -20.257812 14.023438 -19.992188 16.046875 -19.765625 C 18.410156 -19.460938 20.359375 -19.109375 21.890625 -18.703125 C 23.429688 -18.296875 24.804688 -17.546875 26.015625 -16.453125 C 27.234375 -15.367188 27.9375 -13.816406 28.125 -11.796875 C 28.382812 -8.367188 27.421875 -5.738281 25.234375 -3.90625 C 23.046875 -2.082031 20.015625 -1.023438 16.140625 -0.734375 C 11.617188 -0.390625 8.046875 -0.875 5.421875 -2.1875 C 2.804688 -3.507812 1.351562 -6.09375 1.0625 -9.9375 L 9.84375 -10.609375 C 9.957031 -9.160156 10.410156 -8.21875 11.203125 -7.78125 C 12.003906 -7.34375 13.203125 -7.1875 14.796875 -7.3125 C 15.972656 -7.394531 16.9375 -7.59375 17.6875 -7.90625 C 18.4375 -8.226562 18.785156 -8.773438 18.734375 -9.546875 C 18.671875 -10.253906 18.195312 -10.75 17.3125 -11.03125 C 16.4375 -11.3125 15.015625 -11.578125 13.046875 -11.828125 C 10.660156 -12.160156 8.675781 -12.539062 7.09375 -12.96875 C 5.507812 -13.394531 4.09375 -14.191406 2.84375 -15.359375 C 1.601562 -16.535156 0.898438 -18.203125 0.734375 -20.359375 C 0.492188 -23.523438 1.539062 -25.953125 3.875 -27.640625 C 6.207031 -29.328125 9.253906 -30.316406 13.015625 -30.609375 Z M 13.015625 -30.609375 "/></g></g></g><g fill="#69d2e7" fill-opacity="1"><g transform="translate(151.256151, 84.647693)"><g><path d="M 11.4375 -17.375 C 12.257812 -17.4375 13.03125 -17.320312 13.75 -17.03125 C 14.46875 -16.738281 15.050781 -16.296875 15.5 -15.703125 C 15.957031 -15.117188 16.210938 -14.453125 16.265625 -13.703125 C 16.421875 -11.671875 15.601562 -10.328125 13.8125 -9.671875 L 13.828125 -9.578125 C 15.953125 -9.265625 17.101562 -7.972656 17.28125 -5.703125 C 17.34375 -4.835938 17.1875 -4.0625 16.8125 -3.375 C 16.445312 -2.6875 15.910156 -2.128906 15.203125 -1.703125 C 14.492188 -1.285156 13.707031 -1.046875 12.84375 -0.984375 L 1.765625 -0.140625 L 0.515625 -16.546875 Z M 6.28125 -10.546875 L 9.890625 -10.828125 C 10.242188 -10.859375 10.523438 -11.003906 10.734375 -11.265625 C 10.941406 -11.523438 11.035156 -11.84375 11.015625 -12.21875 L 11 -12.453125 C 10.96875 -12.804688 10.820312 -13.097656 10.5625 -13.328125 C 10.3125 -13.554688 10.015625 -13.65625 9.671875 -13.625 L 6.0625 -13.34375 Z M 6.75 -4.34375 L 10.75 -4.65625 C 11.101562 -4.6875 11.382812 -4.832031 11.59375 -5.09375 C 11.8125 -5.351562 11.90625 -5.671875 11.875 -6.046875 L 11.859375 -6.28125 C 11.828125 -6.644531 11.6875 -6.941406 11.4375 -7.171875 C 11.195312 -7.410156 10.898438 -7.515625 10.546875 -7.484375 L 6.546875 -7.171875 Z M 6.75 -4.34375 "/></g></g></g><g fill="#69d2e7" fill-opacity="1"><g transform="translate(169.805924, 83.230994)"><g><path d="M 11.953125 -0.90625 L 6.6875 -0.515625 L 6.203125 -6.890625 L -1.078125 -16.421875 L 4.984375 -16.875 L 8.53125 -11.671875 L 8.625 -11.671875 L 11.375 -17.375 L 17.125 -17.8125 L 11.46875 -7.28125 Z M 11.953125 -0.90625 "/></g></g></g><g fill="#000000" fill-opacity="1"><g transform="translate(192.13159, 88.403569)"><g><path d="M 0.90625 -29.171875 L 10.203125 -29.890625 L 11.84375 -8.359375 L 26.6875 -9.484375 L 27.25 -2.078125 L 3.109375 -0.234375 Z M 0.90625 -29.171875 "/></g></g></g><g fill="#000000" fill-opacity="1"><g transform="translate(220.170022, 86.262195)"><g><path d="M 31.03125 -14.09375 C 31.332031 -10.132812 30.3125 -7.019531 27.96875 -4.75 C 25.625 -2.488281 22.15625 -1.1875 17.5625 -0.84375 C 12.96875 -0.488281 9.335938 -1.25 6.671875 -3.125 C 4.003906 -5.007812 2.519531 -7.929688 2.21875 -11.890625 L 0.90625 -29.171875 L 10.203125 -29.890625 L 11.5 -12.734375 C 11.625 -11.097656 12.160156 -9.828125 13.109375 -8.921875 C 14.054688 -8.023438 15.359375 -7.644531 17.015625 -7.78125 C 18.660156 -7.90625 19.882812 -8.488281 20.6875 -9.53125 C 21.5 -10.582031 21.84375 -11.910156 21.71875 -13.515625 L 20.421875 -30.671875 L 29.71875 -31.375 Z M 31.03125 -14.09375 "/></g></g></g><g fill="#000000" fill-opacity="1"><g transform="translate(255.186544, 83.587884)"><g><path d="M 20.5 -30.671875 L 32.03125 -31.546875 L 22.546875 -18.84375 L 34.4375 -2.625 L 23.46875 -1.796875 L 16.640625 -11.921875 L 11.90625 -7.4375 L 12.40625 -0.953125 L 3.109375 -0.234375 L 0.90625 -29.171875 L 10.203125 -29.890625 L 11.140625 -17.515625 Z M 20.5 -30.671875 "/></g></g></g><g fill="#000000" fill-opacity="1"><g transform="translate(290.203067, 80.913573)"><g><path d="M 0.90625 -29.171875 L 25.9375 -31.09375 L 26.453125 -24.15625 L 10.71875 -22.953125 L 11.03125 -18.953125 L 24.484375 -19.96875 L 24.984375 -13.328125 L 11.53125 -12.3125 L 11.875 -7.890625 L 27.90625 -9.109375 L 28.4375 -2.171875 L 3.109375 -0.234375 Z M 0.90625 -29.171875 "/></g></g></g></svg>