<svg xmlns="http://www.w3.org/2000/svg" xmlns:xlink="http://www.w3.org/1999/xlink" width="422" zoomAndPan="magnify" viewBox="0 0 316.5 68.999997" height="92" preserveAspectRatio="xMidYMid meet" version="1.0"><defs><g/></defs><g fill="#000000" fill-opacity="1"><g transform="translate(8.982856, 48.219097)"><g><path d="M 22.609375 0 L 21.375 -4.09375 L 11.203125 -4.09375 L 9.96875 0 L 0.421875 0 L 11.03125 -29.0625 L 21.890625 -29.0625 L 32.484375 0 Z M 13.140625 -10.609375 L 19.4375 -10.609375 L 16.390625 -20.953125 L 16.21875 -20.953125 Z M 13.140625 -10.609375 "/></g></g></g><g fill="#000000" fill-opacity="1"><g transform="translate(41.853027, 48.219097)"><g><path d="M 19.4375 -29.0625 C 21.238281 -29.0625 22.84375 -28.644531 24.25 -27.8125 C 25.65625 -26.988281 26.753906 -25.847656 27.546875 -24.390625 C 28.335938 -22.941406 28.734375 -21.316406 28.734375 -19.515625 L 28.734375 -18.96875 C 28.734375 -17.164062 28.335938 -15.53125 27.546875 -14.0625 C 26.753906 -12.601562 25.65625 -11.457031 24.25 -10.625 C 22.84375 -9.789062 21.238281 -9.375 19.4375 -9.375 L 12.46875 -9.375 L 12.46875 0 L 3.125 0 L 3.125 -29.0625 Z M 12.46875 -16.1875 L 16.3125 -16.1875 C 17.289062 -16.1875 18.023438 -16.4375 18.515625 -16.9375 C 19.015625 -17.445312 19.265625 -18.140625 19.265625 -19.015625 L 19.265625 -19.34375 C 19.265625 -20.25 19.015625 -20.945312 18.515625 -21.4375 C 18.023438 -21.9375 17.289062 -22.1875 16.3125 -22.1875 L 12.46875 -22.1875 Z M 12.46875 -16.1875 "/></g></g></g><g fill="#000000" fill-opacity="1"><g transform="translate(72.357219, 48.219097)"><g><path d="M 19.4375 -29.0625 C 21.238281 -29.0625 22.84375 -28.644531 24.25 -27.8125 C 25.65625 -26.988281 26.753906 -25.847656 27.546875 -24.390625 C 28.335938 -22.941406 28.734375 -21.316406 28.734375 -19.515625 L 28.734375 -18.96875 C 28.734375 -17.164062 28.335938 -15.53125 27.546875 -14.0625 C 26.753906 -12.601562 25.65625 -11.457031 24.25 -10.625 C 22.84375 -9.789062 21.238281 -9.375 19.4375 -9.375 L 12.46875 -9.375 L 12.46875 0 L 3.125 0 L 3.125 -29.0625 Z M 12.46875 -16.1875 L 16.3125 -16.1875 C 17.289062 -16.1875 18.023438 -16.4375 18.515625 -16.9375 C 19.015625 -17.445312 19.265625 -18.140625 19.265625 -19.015625 L 19.265625 -19.34375 C 19.265625 -20.25 19.015625 -20.945312 18.515625 -21.4375 C 18.023438 -21.9375 17.289062 -22.1875 16.3125 -22.1875 L 12.46875 -22.1875 Z M 12.46875 -16.1875 "/></g></g></g><g fill="#000000" fill-opacity="1"><g transform="translate(102.861411, 48.219097)"><g><path d="M 15.34375 -29.578125 C 19.050781 -29.578125 22.101562 -28.820312 24.5 -27.3125 C 26.894531 -25.800781 28.125 -23.570312 28.1875 -20.625 L 28.1875 -20.109375 L 19.4375 -20.109375 L 19.4375 -20.28125 C 19.4375 -21.125 19.125 -21.828125 18.5 -22.390625 C 17.882812 -22.953125 16.941406 -23.234375 15.671875 -23.234375 C 14.429688 -23.234375 13.476562 -23.050781 12.8125 -22.6875 C 12.15625 -22.320312 11.828125 -21.875 11.828125 -21.34375 C 11.828125 -20.582031 12.273438 -20.015625 13.171875 -19.640625 C 14.078125 -19.273438 15.53125 -18.894531 17.53125 -18.5 C 19.875 -18.019531 21.796875 -17.519531 23.296875 -17 C 24.804688 -16.476562 26.125 -15.625 27.25 -14.4375 C 28.375 -13.257812 28.953125 -11.660156 28.984375 -9.640625 C 28.984375 -6.203125 27.820312 -3.648438 25.5 -1.984375 C 23.175781 -0.328125 20.070312 0.5 16.1875 0.5 C 11.644531 0.5 8.113281 -0.257812 5.59375 -1.78125 C 3.070312 -3.300781 1.8125 -5.988281 1.8125 -9.84375 L 10.640625 -9.84375 C 10.640625 -8.375 11.019531 -7.394531 11.78125 -6.90625 C 12.539062 -6.414062 13.726562 -6.171875 15.34375 -6.171875 C 16.519531 -6.171875 17.492188 -6.296875 18.265625 -6.546875 C 19.046875 -6.796875 19.4375 -7.316406 19.4375 -8.109375 C 19.4375 -8.816406 19.003906 -9.34375 18.140625 -9.6875 C 17.285156 -10.039062 15.882812 -10.414062 13.9375 -10.8125 C 11.570312 -11.320312 9.613281 -11.847656 8.0625 -12.390625 C 6.519531 -12.941406 5.171875 -13.851562 4.015625 -15.125 C 2.859375 -16.394531 2.28125 -18.113281 2.28125 -20.28125 C 2.28125 -23.457031 3.507812 -25.800781 5.96875 -27.3125 C 8.4375 -28.820312 11.5625 -29.578125 15.34375 -29.578125 Z M 15.34375 -29.578125 "/></g></g></g><g fill="#69d2e7" fill-opacity="1"><g transform="translate(136.664779, 41.61182)"><g><path d="M 12.75 -16.484375 C 13.570312 -16.484375 14.332031 -16.3125 15.03125 -15.96875 C 15.726562 -15.625 16.28125 -15.140625 16.6875 -14.515625 C 17.09375 -13.890625 17.296875 -13.195312 17.296875 -12.4375 C 17.296875 -10.40625 16.378906 -9.125 14.546875 -8.59375 L 14.546875 -8.5 C 16.628906 -8.019531 17.671875 -6.648438 17.671875 -4.390625 C 17.671875 -3.523438 17.457031 -2.757812 17.03125 -2.09375 C 16.613281 -1.4375 16.035156 -0.921875 15.296875 -0.546875 C 14.566406 -0.179688 13.765625 0 12.890625 0 L 1.765625 0 L 1.765625 -16.484375 Z M 7.0625 -10.0625 L 10.703125 -10.0625 C 11.054688 -10.0625 11.347656 -10.179688 11.578125 -10.421875 C 11.804688 -10.671875 11.921875 -10.984375 11.921875 -11.359375 L 11.921875 -11.59375 C 11.921875 -11.945312 11.800781 -12.242188 11.5625 -12.484375 C 11.320312 -12.734375 11.035156 -12.859375 10.703125 -12.859375 L 7.0625 -12.859375 Z M 7.0625 -3.828125 L 11.09375 -3.828125 C 11.445312 -3.828125 11.738281 -3.953125 11.96875 -4.203125 C 12.195312 -4.453125 12.3125 -4.757812 12.3125 -5.125 L 12.3125 -5.359375 C 12.3125 -5.734375 12.195312 -6.039062 11.96875 -6.28125 C 11.738281 -6.53125 11.445312 -6.65625 11.09375 -6.65625 L 7.0625 -6.65625 Z M 7.0625 -3.828125 "/></g></g></g><g fill="#69d2e7" fill-opacity="1"><g transform="translate(155.298194, 41.61182)"><g><path d="M 12 0 L 6.703125 0 L 6.703125 -6.390625 L 0.171875 -16.484375 L 6.25 -16.484375 L 9.40625 -11 L 9.515625 -11 L 12.671875 -16.484375 L 18.4375 -16.484375 L 12 -6.390625 Z M 12 0 "/></g></g></g><g fill="#000000" fill-opacity="1"><g transform="translate(177.199954, 48.480416)"><g><path d="M 3.125 -29.0625 L 12.453125 -29.0625 L 12.453125 -7.4375 L 27.375 -7.4375 L 27.375 0 L 3.125 0 Z M 3.125 -29.0625 "/></g></g></g><g fill="#000000" fill-opacity="1"><g transform="translate(205.364813, 48.480416)"><g><path d="M 32.0625 -11.703125 C 32.0625 -7.734375 30.804688 -4.707031 28.296875 -2.625 C 25.785156 -0.539062 22.222656 0.5 17.609375 0.5 C 12.992188 0.5 9.425781 -0.539062 6.90625 -2.625 C 4.382812 -4.707031 3.125 -7.734375 3.125 -11.703125 L 3.125 -29.0625 L 12.453125 -29.0625 L 12.453125 -11.828125 C 12.453125 -10.191406 12.890625 -8.890625 13.765625 -7.921875 C 14.640625 -6.953125 15.90625 -6.46875 17.5625 -6.46875 C 19.226562 -6.46875 20.503906 -6.957031 21.390625 -7.9375 C 22.273438 -8.925781 22.71875 -10.222656 22.71875 -11.828125 L 22.71875 -29.0625 L 32.0625 -29.0625 Z M 32.0625 -11.703125 "/></g></g></g><g fill="#000000" fill-opacity="1"><g transform="translate(240.539228, 48.480416)"><g><path d="M 22.8125 -29.0625 L 34.375 -29.0625 L 23.953125 -17.109375 L 34.59375 0 L 23.5625 0 L 17.53125 -10.640625 L 12.453125 -6.5 L 12.453125 0 L 3.125 0 L 3.125 -29.0625 L 12.453125 -29.0625 L 12.453125 -16.640625 Z M 22.8125 -29.0625 "/></g></g></g><g fill="#000000" fill-opacity="1"><g transform="translate(275.713643, 48.480416)"><g><path d="M 3.125 -29.0625 L 28.25 -29.0625 L 28.25 -22.09375 L 12.453125 -22.09375 L 12.453125 -18.078125 L 25.96875 -18.078125 L 25.96875 -11.40625 L 12.453125 -11.40625 L 12.453125 -6.96875 L 28.546875 -6.96875 L 28.546875 0 L 3.125 0 Z M 3.125 -29.0625 "/></g></g></g></svg>